<svg id="Iconly_Bold_Card" data-name="Iconly/Bold/Card" xmlns="http://www.w3.org/2000/svg" width="24" height="24" viewBox="0 0 24 24">
  <rect id="Rectangle_653" data-name="Rectangle 653" width="24" height="24" fill="none"/>
  <path id="Subtraction_49" data-name="Subtraction 49" d="M13920-133c-1.445,0-2.975-.013-4.546-.038a6.275,6.275,0,0,1-6.457-6.517v-4.888a6.279,6.279,0,0,1,6.468-6.517c1.461-.026,2.969-.039,4.482-.039s3.058.013,4.591.039a6.275,6.275,0,0,1,6.457,6.517v4.888a6.28,6.28,0,0,1-6.461,6.517C13922.971-133.013,13921.445-133,13920-133Zm-6.5-12a1.5,1.5,0,0,0-1.5,1.5,1.5,1.5,0,0,0,1.5,1.5h13a1.5,1.5,0,0,0,1.5-1.5,1.5,1.5,0,0,0-1.5-1.5Z" transform="translate(-13908 154)" fill="#fff" stroke="rgba(0,0,0,0)" stroke-miterlimit="10" stroke-width="1"/>
</svg>
