<svg width="24" height="29" viewBox="0 0 24 29" fill="none" xmlns="http://www.w3.org/2000/svg">
<path d="M21 12.4V16.4C21 15.5 20.6 14.7 20 14.3C19.7 14.1 19.4 14 19 14H5C4.6 14 4.3 14.1 4 14.3C3.4 14.7 3 15.5 3 16.4V12.4C3 11.5 3.4 10.7 4 10.3C4.3 10.1 4.6 10 5 10H19C19.4 10 19.7 10.1 20 10.3C20.6 10.7 21 11.5 21 12.4Z" fill="#BABEC2"/>
<path d="M20.6 9.57143C20.1 9.22857 19.6 9 19 9H5C4.4 9 3.9 9.22857 3.4 9.57143C2.5 10.2571 2 11.5143 2 12.8857V21.1143C2 23.2857 3.3 25 5 25H19C20.7 25 22 23.2857 22 21.1143V12.8857C22 11.5143 21.5 10.2571 20.6 9.57143ZM4.6 11.4C4.7 11.4 4.9 11.2857 5 11.2857H19C19.1 11.2857 19.3 11.4 19.4 11.4C19.8 11.7429 20 12.3143 20 12.8857V13.5714H4V12.8857C4 12.3143 4.2 11.7429 4.6 11.4ZM19 22.7143H5C4.5 22.7143 4 21.9143 4 21.1143V15.8571H20V21.1143C20 21.9143 19.5 22.7143 19 22.7143Z" fill="#6566B0"/>
<path d="M7 17H6C5.4 17 5 17.4 5 18V19C5 19.6 5.4 20 6 20H7C7.6 20 8 19.6 8 19V18C8 17.4 7.6 17 7 17Z" fill="#6566B0"/>
<path d="M15.9492 6.68C15.9002 6.62937 15.84 6.58752 15.7722 6.55684C15.7043 6.52617 15.63 6.50727 15.5536 6.50123C15.4772 6.49519 15.4002 6.50213 15.3269 6.52166C15.2537 6.54118 15.1856 6.5729 15.1267 6.615L12.5833 8.43L12.5833 2.5C12.5833 2.36739 12.5219 2.24021 12.4125 2.14645C12.3031 2.05268 12.1547 2 12 2C11.8453 2 11.6969 2.05268 11.5875 2.14645C11.4781 2.24021 11.4167 2.36739 11.4167 2.5L11.4167 8.43L8.87332 6.615C8.81434 6.57298 8.74627 6.54132 8.67302 6.52185C8.59976 6.50237 8.52274 6.49545 8.44637 6.50149C8.36999 6.50753 8.29575 6.5264 8.22788 6.55703C8.16001 6.58765 8.09985 6.62944 8.05082 6.68C8.0018 6.73056 7.96487 6.7889 7.94215 6.85169C7.91942 6.91448 7.91135 6.9805 7.91839 7.04596C7.92544 7.11143 7.94745 7.17506 7.98319 7.23324C8.01892 7.29141 8.06767 7.34298 8.12666 7.385L11.6267 9.885L11.7142 9.93L11.79 9.965C11.9251 10.0097 12.0748 10.0097 12.21 9.965L12.2858 9.93L12.3733 9.885L15.8733 7.385C15.9324 7.34303 15.9812 7.29148 16.017 7.2333C16.0528 7.17513 16.0748 7.11147 16.0819 7.04599C16.0889 6.9805 16.0808 6.91446 16.0581 6.85166C16.0353 6.78886 15.9983 6.73052 15.9492 6.68Z" fill="#BABEC2"/>
</svg>
