<svg width="24" height="24" viewBox="0 0 24 24" fill="none" xmlns="http://www.w3.org/2000/svg">
<path d="M0.75 11.75V17.9808C0.75 18.7152 1.06607 19.4196 1.62868 19.9389C2.19129 20.4582 2.95435 20.75 3.75 20.75H20.25C21.0456 20.75 21.8087 20.4582 22.3713 19.9389C22.9339 19.4196 23.25 18.7152 23.25 17.9808V11.75H0.75Z" fill="#131353"/>
<path d="M20.25 2.75H3.75C2.95435 2.75 2.19129 3.04176 1.62868 3.56109C1.06607 4.08042 0.75 4.78478 0.75 5.51923V13.1346H23.25V5.51923C23.25 4.78478 22.9339 4.08042 22.3713 3.56109C21.8087 3.04176 21.0456 2.75 20.25 2.75Z" fill="#131353"/>
<path d="M5.25 13.1346H0.75V17.9808C0.75 18.7152 1.06607 19.4196 1.62868 19.9389C2.19129 20.4582 2.95435 20.75 3.75 20.75H20.25C21.0456 20.75 21.8087 20.4582 22.3713 19.9389C22.9339 19.4196 23.25 18.7152 23.25 17.9808V15.9038H8.25C7.45435 15.9038 6.69129 15.6121 6.12868 15.0928C5.56607 14.5734 5.25 13.8691 5.25 13.1346Z" fill="#131353"/>
<path d="M11.5127 10.3743C11.6672 10.4989 11.7897 10.6468 11.8734 10.8096C11.957 10.9724 12 11.147 12 11.3233C12 11.4996 11.957 11.6741 11.8734 11.8369C11.7897 11.9998 11.6672 12.1477 11.5127 12.2722C10.3419 13.2179 7.99209 13.2179 7.99209 13.2179V13.205C7.99209 13.0366 8.04822 11.2747 9.16296 10.3743C9.31716 10.2496 9.50029 10.1506 9.70189 10.0831C9.90349 10.0155 10.1196 9.98077 10.3379 9.98077C10.5561 9.98077 10.7722 10.0155 10.9738 10.0831C11.1754 10.1506 11.3585 10.2496 11.5127 10.3743ZM11.5127 14.1636C11.8176 14.4164 11.987 14.756 11.9841 15.109C11.9813 15.4619 11.8064 15.7997 11.4975 16.0492C11.1885 16.2988 10.7703 16.44 10.3334 16.4423C9.89642 16.4446 9.47594 16.3078 9.16296 16.0615C8.07228 15.1806 8.00011 13.49 7.99209 13.2438V13.2179C7.99209 13.2179 10.3419 13.2179 11.5127 14.1636ZM7.99209 13.2244V13.2438C7.98407 13.49 7.91189 15.1806 6.82121 16.0615C6.50823 16.3078 6.08775 16.4446 5.65082 16.4423C5.21389 16.44 4.79566 16.2988 4.4867 16.0492C4.17773 15.7997 4.00289 15.4619 4.00004 15.109C3.99718 14.756 4.16653 14.4164 4.47143 14.1636C5.58617 13.2633 7.76753 13.2179 7.97605 13.2179H7.99209V13.2244ZM7.99209 13.205V13.2179H7.97605C7.76753 13.2179 5.58617 13.1726 4.47143 12.2722C4.16653 12.0194 3.99718 11.6798 4.00004 11.3269C4.00289 10.974 4.17773 10.6362 4.4867 10.3867C4.79566 10.1371 5.21389 9.99589 5.65082 9.99358C6.08775 9.99127 6.50823 10.1281 6.82121 10.3743C7.93595 11.2747 7.99209 13.0366 7.99209 13.205Z" fill="#BABEC2"/>
<path d="M3.75 3.75C2.95435 3.75 2.19129 4.04176 1.62868 4.56109C1.06607 5.08042 0.75 5.78478 0.75 6.51923V14.1346H5.25V3.75H3.75Z" fill="#131353"/>
<path d="M20.25 3H3.75C2.7558 3.00102 1.80267 3.34 1.09966 3.94257C0.396661 4.54514 0.00119089 5.36212 0 6.21429L0 17.7857C0.00119089 18.6379 0.396661 19.4549 1.09966 20.0574C1.80267 20.66 2.7558 20.999 3.75 21H20.25C21.2442 20.999 22.1973 20.66 22.9003 20.0574C23.6033 19.4549 23.9988 18.6379 24 17.7857V6.21429C23.9988 5.36212 23.6033 4.54514 22.9003 3.94257C22.1973 3.34 21.2442 3.00102 20.25 3V3ZM9.075 12.5786C9.14895 11.9694 9.42803 11.3918 9.87825 10.9161C10.0323 10.7923 10.2356 10.7234 10.4467 10.7234C10.6579 10.7234 10.8612 10.7923 11.0153 10.9161C11.1654 11.0454 11.2497 11.2204 11.2497 11.4028C11.2497 11.5852 11.1654 11.7602 11.0153 11.8894C10.4605 12.276 9.78619 12.5155 9.075 12.5786V12.5786ZM11.0153 15.6559C10.8642 15.7847 10.6598 15.857 10.4467 15.857C10.2337 15.857 10.0293 15.7847 9.87825 15.6559C9.4279 15.1801 9.1488 14.6023 9.075 13.9929C9.78599 14.0561 10.4601 14.2953 11.0153 14.6814C11.0901 14.7455 11.1494 14.8216 11.1899 14.9054C11.2304 14.9891 11.2512 15.0789 11.2512 15.1696C11.2512 15.2603 11.2304 15.3501 11.1899 15.4339C11.1494 15.5176 11.0901 15.5937 11.0153 15.6579V15.6559ZM7.425 13.9929C7.35162 14.603 7.0725 15.1815 6.62175 15.6579C6.54789 15.7247 6.45917 15.7781 6.36081 15.8151C6.26246 15.852 6.15646 15.8717 6.04909 15.8729C5.94172 15.8742 5.83514 15.857 5.73564 15.8224C5.63615 15.7877 5.54576 15.7364 5.4698 15.6713C5.39384 15.6063 5.33386 15.5288 5.2934 15.4436C5.25293 15.3583 5.2328 15.267 5.23419 15.1749C5.23559 15.0829 5.25848 14.992 5.30151 14.9077C5.34454 14.8234 5.40685 14.7473 5.48475 14.6839C6.03926 14.2966 6.71357 14.0565 7.425 13.9929V13.9929ZM5.48475 10.9181C5.63676 10.7909 5.84079 10.7196 6.05325 10.7196C6.26571 10.7196 6.46974 10.7909 6.62175 10.9181C7.07157 11.3932 7.35063 11.97 7.425 12.5786C6.71394 12.5151 6.03979 12.2756 5.48475 11.8894C5.33531 11.7602 5.25145 11.5857 5.25145 11.4038C5.25145 11.2218 5.33531 11.0473 5.48475 10.9181ZM3.75 4.28571H7.5V9.87857C7.06107 9.56482 6.50111 9.40312 5.93016 9.42523C5.35921 9.44734 4.81855 9.65168 4.41442 9.99808C4.01029 10.3445 3.7719 10.8079 3.7461 11.2973C3.7203 11.7867 3.90896 12.2666 4.275 12.6429H1.5V6.21429C1.5 5.7028 1.73705 5.21226 2.15901 4.85058C2.58097 4.4889 3.15326 4.28571 3.75 4.28571V4.28571ZM1.5 17.7857V13.9286H4.275C3.90896 14.3048 3.7203 14.7848 3.7461 15.2741C3.7719 15.7635 4.01029 16.227 4.41442 16.5734C4.81855 16.9198 5.35921 17.1241 5.93016 17.1462C6.50111 17.1683 7.06107 17.0066 7.5 16.6929V19.7143H3.75C3.15326 19.7143 2.58097 19.5111 2.15901 19.1494C1.73705 18.7877 1.5 18.2972 1.5 17.7857V17.7857ZM22.5 17.7857C22.5 18.2972 22.2629 18.7877 21.841 19.1494C21.419 19.5111 20.8467 19.7143 20.25 19.7143H9V16.6929C9.43929 17.0046 9.99847 17.1647 10.5682 17.1417C11.1379 17.1188 11.6771 16.9145 12.0803 16.5689C12.4836 16.2232 12.7219 15.761 12.7487 15.2727C12.7754 14.7844 12.5887 14.3051 12.225 13.9286H20.25C20.4489 13.9286 20.6397 13.8608 20.7803 13.7403C20.921 13.6197 21 13.4562 21 13.2857C21 13.1152 20.921 12.9517 20.7803 12.8311C20.6397 12.7106 20.4489 12.6429 20.25 12.6429H12.225C12.5887 12.2663 12.7754 11.787 12.7487 11.2987C12.7219 10.8104 12.4836 10.3482 12.0803 10.0026C11.6771 9.6569 11.1379 9.45262 10.5682 9.42969C9.99847 9.40676 9.43929 9.56682 9 9.87857V4.28571H20.25C20.8467 4.28571 21.419 4.4889 21.841 4.85058C22.2629 5.21226 22.5 5.7028 22.5 6.21429V17.7857Z" fill="#6566B0"/>
</svg>
