<svg width="24" height="24" viewBox="0 0 24 24" fill="none" xmlns="http://www.w3.org/2000/svg">
<path d="M13.5 20.9C13 21 12.5 21 12 21C7 21 3 17 3 12C3 7 7 3 12 3C12.5 3 13 3 13.5 3.1C9.2 3.8 6 7.5 6 12C6 16.5 9.2 20.2 13.5 20.9Z" fill="#BABEC2"/>
<path d="M12.25 2C6.6125 2 2 6.6125 2 12.25C2 17.8875 6.6125 22.5 12.25 22.5C17.8875 22.5 22.5 17.8875 22.5 12.25C22.5 6.6125 17.8875 2 12.25 2ZM12.25 20.45C7.74 20.45 4.05 16.76 4.05 12.25C4.05 7.74 7.74 4.05 12.25 4.05C16.76 4.05 20.45 7.74 20.45 12.25C20.45 16.76 16.76 20.45 12.25 20.45Z" fill="#6566B0"/>
<path d="M13 11.6V9C13 8.4 12.6 8 12 8C11.4 8 11 8.4 11 9V12C11 12.3 11.1 12.5 11.3 12.7L14.3 15.7C14.5 15.9 14.8 16 15 16C15.2 16 15.5 15.9 15.7 15.7C16.1 15.3 16.1 14.7 15.7 14.3L13 11.6Z" fill="#6566B0"/>
</svg>
