<svg width="24" height="24" viewBox="0 0 24 24" fill="none" xmlns="http://www.w3.org/2000/svg">
<path d="M23.1428 11.9866C23.1241 13.3665 22.8467 14.741 22.3371 16.0239C21.8623 17.2179 21.182 18.331 20.3149 19.2959C18.4981 21.3172 16.0598 22.5004 13.5253 22.8184C12.4102 22.9586 11.279 22.9316 10.1746 22.7349C9.54762 22.6244 8.92868 22.4573 8.32575 22.2363C7.43737 21.9075 6.58367 21.4601 5.79666 20.8914C5.27377 20.5141 4.78022 20.0802 4.32136 19.595C3.77712 19.0183 3.30225 18.3849 2.90208 17.7084C2.8007 17.5359 2.70199 17.3634 2.61129 17.1855C2.35518 16.6977 2.13641 16.191 1.955 15.6709C1.39476 14.0565 1.19734 12.3154 1.4081 10.6066C1.4161 10.542 1.42411 10.4773 1.43478 10.4126C1.99769 6.448 4.76688 3.25422 8.4378 1.83387C10.9856 0.847439 13.6641 0.871695 16.0331 1.71798C17.9593 2.40794 19.6773 3.63963 20.9525 5.31872C20.9579 5.32411 20.9605 5.3295 20.9659 5.33489C21.5848 6.15422 22.097 7.07867 22.4759 8.09474C22.4919 8.13787 22.5079 8.18099 22.5239 8.22411C22.5319 8.24298 22.5372 8.26185 22.5426 8.28071C22.5532 8.30766 22.5639 8.33731 22.5719 8.36696C22.5933 8.42625 22.6119 8.48285 22.6306 8.54214C22.6893 8.72541 22.7453 8.91138 22.7933 9.09735C23.0414 10.038 23.1562 11.0136 23.1428 11.9866Z" fill="#1D1E65"/>
<path d="M23.0412 12.1775C22.8462 12.0806 22.616 11.9035 22.3409 11.6343C21.1634 10.471 19.0614 10.7729 18.3668 10.0961C17.9166 9.65787 18.4218 12.0559 18.9048 12.3616C20.6955 13.4923 17.6679 17.8717 17.4446 18.5528C17.2577 19.1225 17.2062 20.0054 16.3928 20.1596C16.2004 20.1963 15.9694 20.194 15.6884 20.1374C14.2212 19.8438 13.4852 16.9803 13.4775 15.7404C13.4698 14.5006 12.5536 14.9857 10.5203 14.583C8.48608 14.1829 9.10297 12.1885 9.62291 11.2531C10.1437 10.3152 11.367 10.3845 12.0245 10.4692C12.6844 10.5548 12.275 9.75811 13.1178 9.75556C13.1367 9.75659 13.1541 9.75424 13.1731 9.75527C13.1921 9.7563 13.211 9.75733 13.23 9.75836C13.2465 9.75853 13.2646 9.76207 13.2835 9.7631C13.2884 9.76483 13.2918 9.76318 13.2967 9.76491C13.3123 9.76758 13.3288 9.76775 13.3469 9.77129C13.3683 9.77319 13.3888 9.77759 13.4127 9.78035C13.4546 9.78665 13.4966 9.79295 13.5376 9.80177C13.564 9.80539 13.5919 9.81239 13.6173 9.81853C13.6428 9.82467 13.6715 9.82915 13.6994 9.83616C13.6994 9.83616 13.7019 9.83702 13.7043 9.83789C13.7322 9.84489 13.7577 9.85102 13.7856 9.85803C13.8135 9.86503 13.8414 9.87203 13.8717 9.8799C13.907 9.88949 13.9398 9.89823 13.9751 9.90782C14.0456 9.92702 14.1161 9.94621 14.1867 9.9654C14.2219 9.975 14.2572 9.98459 14.2949 9.99506C14.3302 10.0047 14.3679 10.0151 14.4032 10.0247C14.4384 10.0343 14.4761 10.0448 14.5114 10.0544C14.559 10.0683 14.6074 10.0797 14.6574 10.0945C14.6828 10.1006 14.7058 10.1059 14.7304 10.1145C14.7788 10.1259 14.8272 10.1374 14.8757 10.1488C14.9241 10.1602 14.9725 10.1716 15.0194 10.1796C15.1147 10.1991 15.2108 10.216 15.303 10.2287C15.6296 10.2731 15.9369 10.2627 16.1882 10.145C17.0136 9.76068 16.4471 8.5556 15.8655 8.16148C15.6494 8.01476 15.4388 8.15808 15.2222 8.38119C14.8593 8.7533 14.4838 9.34131 14.034 9.12922C13.3165 8.79176 12.8683 8.19892 12.6545 8.68851C12.4431 9.17897 11.2532 9.82192 10.5733 9.2915C10.4193 9.17229 10.4466 8.89098 10.585 8.52168C10.5903 8.5066 10.5956 8.49152 10.6009 8.47645C10.6027 8.47142 10.6045 8.4664 10.6062 8.46137C10.6115 8.44629 10.6193 8.43208 10.6255 8.41449C10.6282 8.40695 10.6308 8.39942 10.6335 8.39188C10.6414 8.36926 10.6519 8.34751 10.6623 8.32576C10.6667 8.3132 10.6736 8.3015 10.678 8.28893C10.6893 8.26467 10.7006 8.24041 10.7128 8.21363C10.7363 8.16259 10.7598 8.11155 10.7867 8.05886C10.7953 8.04214 10.804 8.02541 10.8117 8.0112C11.0067 7.62229 11.2671 7.18864 11.5382 6.75593C11.5819 6.6866 11.6248 6.61978 11.6685 6.55045C12.2618 5.61831 12.8722 4.73172 12.9808 4.39995C13.1641 3.84029 14.6598 4.25694 15.9589 4.50269C16.4249 4.59054 16.8649 4.65795 17.2101 4.64962C18.4737 4.62016 18.5457 3.98458 19.2157 3.68108C20.3022 4.60892 21.2237 5.70743 21.874 6.96462C22.6844 8.53525 23.0938 10.3431 23.0412 12.1775ZM5.5838 9.46042C5.02759 10.1853 2.05682 10.6416 2.22884 11.462C2.36447 12.1114 2.08293 12.323 1.74907 12.1658C1.72048 12.1529 1.69033 12.1367 1.65949 12.1145C1.66661 10.9109 1.87149 9.6866 2.29456 8.48547C2.47069 7.98541 2.67855 7.50501 2.91724 7.04677C3.16861 7.13248 3.43796 7.19064 3.66943 7.17613C4.34642 7.13495 4.44314 7.26787 4.04753 7.52115C3.65103 7.77693 2.07253 7.9638 2.37683 8.6359C2.67779 9.30965 3.46933 8.7552 3.91345 8.54443C4.08629 8.46126 4.46569 8.47344 4.83013 8.55943C5.39388 8.69869 5.92446 9.01832 5.5838 9.46042ZM7.41441 17.0452C6.84495 17.4943 7.35199 17.6926 6.70784 18.4713C6.11814 19.1816 5.48243 19.709 5.36764 20.3719C4.64776 19.7511 4.01928 19.0354 3.49633 18.2553C3.47642 18.155 3.4514 18.0615 3.42442 17.9814C3.34326 17.7494 3.12535 17.506 2.90116 17.2491C2.65877 16.7852 2.44979 16.3049 2.27913 15.8098C2.32657 15.3068 2.24962 14.8278 1.87354 14.3281C1.83441 14.1335 1.8002 13.9407 1.77266 13.7446C2.07535 13.9981 2.4093 14.1863 2.74007 14.1955C3.80175 14.222 4.16211 14.2021 4.45315 14.5983C4.74173 14.9937 5.96356 13.9073 6.60434 15.1131C7.24846 16.3173 7.98388 16.5961 7.41441 17.0452ZM5.94791 6.39691C5.94791 6.39691 6.19764 6.93397 6.42994 7.05816C6.66223 7.18235 6.86683 8.09049 7.22609 7.83854C7.58535 7.58659 7.63387 7.6291 8.25874 7.45375C8.88362 7.27841 10.2476 6.32115 10.047 5.87198C9.84636 5.42282 10.2456 5.2612 9.20432 5.27859C8.16305 5.29597 7.73315 4.76888 7.48664 5.38254C7.24346 5.99456 5.95968 5.65819 5.94791 6.39691Z" fill="#6566B0"/>
<path d="M16.591 21.5752C16.4144 21.6801 16.1861 21.7595 15.8899 21.802C14.3438 22.0259 12.6264 19.4125 12.1889 18.1709C11.7514 16.9294 11.0178 17.7401 8.8765 18.0576C6.73524 18.3722 6.651 16.1556 6.8385 15.0331C7.026 13.9078 8.25423 13.545 8.93085 13.3976C9.61018 13.2502 8.93085 12.5954 9.75963 12.2949C10.3357 12.0852 11.3031 12.1589 12.0667 11.9973C12.1264 12.3545 9.75963 12.2978 10.4607 13.2502C11.1618 14.2054 9.55583 14.5484 8.42542 14.5852C7.29501 14.6249 7.40914 15.685 7.89826 16.8245C8.38738 17.964 11.5911 15.4895 12.6454 17.7287C13.7025 19.9709 16.591 21.5752 16.591 21.5752Z" fill="#6566B0"/>
<path d="M14.5454 13.9616C14.4988 14.0092 14.464 14.0679 14.4439 14.1327C14.4238 14.1975 14.4191 14.2664 14.4301 14.3335L14.8074 16.6335C14.82 16.7107 14.8117 16.7902 14.7835 16.8628C14.7552 16.9354 14.7081 16.9982 14.6475 17.0443C14.5869 17.0904 14.5152 17.1178 14.4404 17.1234C14.3657 17.1291 14.291 17.1127 14.2246 17.0762L12.2503 15.9904C12.1927 15.9587 12.1286 15.9421 12.0636 15.9421C11.9985 15.9421 11.9344 15.9587 11.8769 15.9904L9.90304 17.0762C9.83673 17.1128 9.76197 17.1291 9.68722 17.1235C9.61248 17.1179 9.54072 17.0905 9.48009 17.0444C9.41945 16.9983 9.37235 16.9354 9.34411 16.8628C9.31587 16.7902 9.30762 16.7107 9.3203 16.6335L9.44066 15.8996L9.6976 14.3335C9.70837 14.2663 9.70345 14.1974 9.68328 14.1327C9.6631 14.0679 9.62826 14.0092 9.58172 13.9616L7.98464 12.3328C7.9311 12.2781 7.89325 12.2087 7.87538 12.1326C7.85751 12.0566 7.86031 11.9768 7.88348 11.9023C7.90665 11.8278 7.94927 11.7616 8.00651 11.7111C8.06375 11.6606 8.13334 11.6278 8.20743 11.6165L10.4147 11.2809C10.479 11.2712 10.5401 11.2452 10.5927 11.2052C10.6453 11.1652 10.6877 11.1124 10.7164 11.0513L11.7039 8.95871C11.737 8.88844 11.7883 8.82927 11.8519 8.78789C11.9155 8.74652 11.9889 8.72459 12.0638 8.72459C12.1387 8.72459 12.2121 8.74652 12.2758 8.78789C12.3394 8.82927 12.3906 8.88844 12.4238 8.95871L13.4107 11.0513C13.4349 11.1029 13.4691 11.1486 13.511 11.1857C13.5529 11.2228 13.6016 11.2504 13.6542 11.2669C13.6734 11.2733 13.693 11.2781 13.713 11.2809L15.9203 11.6165C15.9944 11.6278 16.064 11.6606 16.1212 11.7111C16.1785 11.7616 16.221 11.8279 16.2442 11.9024C16.2673 11.9769 16.27 12.0567 16.252 12.1328C16.2341 12.2089 16.1961 12.2781 16.1425 12.3328L14.5454 13.9616Z" fill="#E6E8EA"/>
<g clip-path="url(#clip0_3141_20742)">
<path d="M12.3903 6.18545C12.6929 7.47133 11.9638 8.80723 10.7617 9.16919C9.56013 9.53095 8.34041 8.78181 8.038 7.49595C7.73524 6.21002 8.46432 4.87407 9.66602 4.51224C10.868 4.15026 12.0877 4.89954 12.3903 6.18549L12.3903 6.18546L12.3903 6.18545Z" fill="#1D1E65"/>
<path d="M10.9387 6.00866C10.8373 5.70516 10.561 5.67638 10.2362 5.74228L10.1344 5.30959L9.88824 5.38376L9.98739 5.80505C9.92266 5.82453 9.85684 5.84582 9.79143 5.86702L9.69169 5.44291L9.44565 5.517L9.54735 5.9496C9.49434 5.96682 9.44223 5.98365 9.39121 5.99905L9.39086 5.9977L9.0513 6.09981L9.11755 6.3811C9.11755 6.3811 9.29847 6.32266 9.29629 6.32713C9.396 6.29713 9.44304 6.3493 9.46507 6.39989L9.58107 6.89283C9.58795 6.89079 9.59699 6.88839 9.60753 6.88683C9.59932 6.88932 9.59055 6.8919 9.58153 6.89472L9.74394 7.5853C9.74748 7.62018 9.74164 7.67928 9.67199 7.70038C9.67585 7.70241 9.49303 7.75423 9.49303 7.75423L9.51812 8.08351L9.83849 7.98703C9.89813 7.96916 9.95705 7.95258 10.0147 7.9356L10.1178 8.3732L10.3637 8.29918L10.2618 7.86618C10.3297 7.84734 10.3952 7.82824 10.459 7.80897L10.5603 8.24L10.8065 8.16583L10.7037 7.72896C11.1117 7.57892 11.3751 7.38016 11.3132 6.95349C11.2634 6.60992 11.0811 6.50486 10.832 6.51524C10.9564 6.39449 11.0134 6.23062 10.9388 6.00865L10.9387 6.00864L10.9387 6.00866ZM10.8145 7.04812C10.8916 7.37513 10.3594 7.49555 10.1926 7.54596L10.0562 6.9661C10.2231 6.9159 10.7342 6.707 10.8145 7.04812L10.8145 7.04812ZM10.5075 6.26454C10.5774 6.56209 10.1327 6.65882 9.99377 6.70068L9.87006 6.1748C10.009 6.13295 10.4344 5.95422 10.5075 6.26453L10.5075 6.26454Z" fill="#BABEC2"/>
</g>
<g clip-path="url(#clip1_3141_20742)">
<path d="M17.8293 5.71805C17.8977 5.61702 18.0641 5.69015 18.0601 5.82071C18.0683 5.92142 17.9706 5.99775 17.8879 5.95891C17.8031 5.9243 17.7691 5.7896 17.8293 5.71805ZM16.8938 6.33128C16.9383 6.27699 17.0339 6.30121 17.058 6.3745C17.0962 6.44804 17.0392 6.54439 16.967 6.53622C16.8775 6.53978 16.8263 6.39378 16.8938 6.3313L16.8938 6.33128ZM19.0015 5.52963C18.9092 5.56066 18.8284 5.40868 18.8987 5.33497C18.9483 5.26589 19.0371 5.30527 19.0768 5.37205C19.0889 5.43987 19.0684 5.51767 19.0014 5.52953L19.0015 5.52963ZM17.324 6.70691C17.3884 6.5923 17.5644 6.62809 17.603 6.76074C17.6517 6.88989 17.5374 7.03539 17.4193 6.99034C17.3117 6.96232 17.2585 6.80196 17.324 6.70695L17.324 6.70691ZM18.7781 6.07338C18.7673 5.92859 18.9342 5.84107 19.0327 5.93866C19.1192 6.00959 19.1108 6.15472 19.041 6.22806C18.9406 6.30676 18.7773 6.22041 18.7782 6.07345L18.7781 6.07338ZM18.0951 6.68871C18.0491 6.58235 18.0994 6.46113 18.184 6.41042C18.2477 6.3951 18.3232 6.39238 18.3768 6.44796C18.4628 6.51867 18.476 6.66814 18.4102 6.75279C18.3824 6.79674 18.3331 6.80995 18.29 6.82774C18.2108 6.82308 18.1269 6.77848 18.0951 6.68872L18.0951 6.68871ZM16.6921 7.57283C16.7517 7.46988 16.9134 7.52365 16.9264 7.64689C16.9477 7.74846 16.8561 7.83957 16.7696 7.81086C16.6805 7.78797 16.6346 7.64935 16.6921 7.57283ZM19.8457 6.00826C19.8905 5.90738 20.0412 5.92283 20.0772 6.03276C20.1228 6.12679 20.0503 6.25064 19.9577 6.23659C19.8613 6.23463 19.7938 6.09774 19.8456 6.00816L19.8457 6.00826ZM18.6546 6.83116C18.7529 6.72236 18.9197 6.7115 19.0396 6.80101C19.1929 6.90719 19.242 7.16027 19.1393 7.31574C19.0383 7.4895 18.7912 7.50731 18.6592 7.34708C18.5282 7.21001 18.5281 6.95725 18.6546 6.83116V6.83116ZM17.9619 7.1948C18.0636 7.05697 18.267 7.02928 18.397 7.15437C18.5365 7.26963 18.568 7.51084 18.467 7.65621C18.3698 7.81145 18.1518 7.83853 18.0176 7.70694C17.8778 7.58483 17.8518 7.3376 17.9619 7.1948ZM17.3784 7.81996C17.3469 7.71624 17.4001 7.6122 17.4783 7.56534C17.5708 7.53422 17.6737 7.57823 17.7265 7.67605C17.7635 7.78029 17.7378 7.91297 17.6448 7.95834C17.5471 8.01911 17.408 7.94588 17.3785 7.82004L17.3784 7.81996ZM19.3854 6.64539C19.4603 6.52279 19.6491 6.55351 19.7033 6.69527C19.7728 6.83945 19.6558 7.02348 19.515 6.98847C19.3762 6.97005 19.2989 6.76265 19.3854 6.64541L19.3854 6.64539ZM17.9515 7.98628C18.0575 7.88646 18.2258 7.8839 18.341 7.98458C18.4621 8.08332 18.5123 8.27907 18.4507 8.42611C18.3793 8.63243 18.1136 8.69561 17.9625 8.53737C17.8077 8.40037 17.8051 8.11518 17.9515 7.98626L17.9515 7.98628ZM19.2784 7.3272C19.3808 7.22867 19.5431 7.21242 19.6602 7.30644C19.8055 7.40826 19.8556 7.64276 19.7687 7.79795C19.6822 7.97105 19.4539 8.01594 19.3102 7.88367C19.1487 7.75326 19.1335 7.46329 19.2784 7.3272V7.3272ZM17.2327 8.54037C17.3189 8.44151 17.4933 8.51865 17.5017 8.66149C17.5223 8.78521 17.4049 8.89302 17.3009 8.84582C17.1871 8.80953 17.1453 8.62396 17.2327 8.54037L17.2327 8.54037ZM20.1749 7.29424C20.129 7.1942 20.1551 7.07235 20.2426 7.02209C20.3207 6.99945 20.4198 7.03225 20.4526 7.12651C20.5102 7.24397 20.4193 7.38831 20.3066 7.37561C20.2546 7.37174 20.2124 7.33287 20.1749 7.29418L20.1749 7.29424ZM16.7376 8.85796C16.7877 8.79419 16.8934 8.81907 16.9134 8.9082C16.9492 9.00264 16.8461 9.09694 16.7699 9.04096C16.7089 9.00626 16.6968 8.91187 16.7376 8.85796ZM20.7502 6.86515C20.7794 6.80593 20.8625 6.79683 20.9059 6.84873C20.964 6.90007 20.9471 7.01828 20.878 7.039C20.7916 7.09338 20.695 6.94828 20.7502 6.86515ZM18.5784 8.48096C18.7246 8.34739 18.9729 8.41988 19.0584 8.61932C19.1546 8.81588 19.0528 9.08297 18.8617 9.12136C18.7187 9.16238 18.5523 9.066 18.4911 8.90865C18.4281 8.76039 18.4665 8.57445 18.5784 8.48095L18.5784 8.48096ZM19.2416 8.1515C19.3883 8.01209 19.6433 8.0849 19.7269 8.29075C19.8195 8.48455 19.7208 8.74287 19.5363 8.7868C19.3684 8.8415 19.1669 8.69815 19.136 8.49859C19.1083 8.36916 19.153 8.23054 19.2416 8.1515V8.1515ZM18.0146 8.90896C18.1224 8.82735 18.2969 8.9248 18.3038 9.07787C18.3272 9.23309 18.1698 9.35644 18.0456 9.28174C17.9101 9.21808 17.8937 8.98698 18.0146 8.90896V8.90896ZM19.9625 7.95028C20.0459 7.84733 20.219 7.88861 20.2666 8.02458C20.3321 8.16776 20.2154 8.34676 20.0771 8.31286C19.9287 8.29437 19.8554 8.05989 19.9625 7.95028ZM20.7729 8.31265C20.6944 8.24428 20.7194 8.08966 20.8113 8.06392C20.8533 8.04211 20.8992 8.06606 20.94 8.08512C20.9677 8.13496 21.0035 8.19296 20.983 8.25226C20.9635 8.35265 20.8386 8.38871 20.773 8.31273L20.7729 8.31265ZM17.5866 9.69344C17.6402 9.59273 17.7931 9.62743 17.8207 9.74396C17.8514 9.84388 17.7709 9.94958 17.6799 9.92951C17.5861 9.91676 17.5299 9.77578 17.5867 9.69354L17.5866 9.69344ZM19.2404 9.11423C19.3219 9.00944 19.4987 9.04867 19.5449 9.18634C19.6145 9.32922 19.4935 9.51214 19.3547 9.47437C19.2099 9.45472 19.1347 9.22284 19.2404 9.11414L19.2404 9.11423ZM18.5962 9.67138C18.662 9.57342 18.8202 9.60774 18.8607 9.72675C18.9032 9.81976 18.8577 9.9396 18.7715 9.96551C18.7042 9.99686 18.6317 9.94925 18.5826 9.89409C18.5535 9.82189 18.5452 9.72947 18.5962 9.67148L18.5962 9.67138ZM20.0695 8.94265C20.1331 8.83221 20.3021 8.86171 20.3454 8.98886C20.4019 9.11613 20.2903 9.271 20.1699 9.22871C20.0598 9.20332 20.0028 9.03937 20.0695 8.94265ZM20.6353 9.54936C20.5649 9.49835 20.5764 9.38911 20.6353 9.34028C20.6935 9.32651 20.7689 9.34487 20.7878 9.42148C20.8207 9.52151 20.7117 9.61127 20.6353 9.54936ZM18.5765 10.496C18.5688 10.4317 18.5843 10.3563 18.6477 10.3426C18.734 10.3081 18.8202 10.4415 18.7662 10.5226C18.7222 10.6064 18.6164 10.574 18.5765 10.496ZM19.5844 10.0742C19.5652 9.98294 19.6412 9.89626 19.7212 9.91009C19.7701 9.9102 19.8042 9.95685 19.8335 9.99635C19.8378 10.0224 19.8426 10.0481 19.8475 10.0738C19.837 10.1208 19.8194 10.1712 19.777 10.1908C19.7038 10.2398 19.5908 10.1728 19.5844 10.0742Z" fill="#1D1E65"/>
</g>
<defs>
<clipPath id="clip0_3141_20742">
<rect width="4.91875" height="4.99956" fill="white" transform="matrix(0.855258 -0.518202 0.449839 0.89311 6.77283 5.81895)"/>
</clipPath>
<clipPath id="clip1_3141_20742">
<rect width="4.88815" height="5.20272" fill="white" transform="matrix(0.895837 -0.444383 0.388793 0.921325 15.5001 6.53316)"/>
</clipPath>
</defs>
</svg>
